<?xml version="1.0" standalone="no"?>
<svg xmlns:xlink="http://www.w3.org/1999/xlink" id="wave" style="transform:rotate(0deg); transition: 0.3s" viewBox="0 0 1440 490" version="1.1" xmlns="http://www.w3.org/2000/svg"><defs><linearGradient id="sw-gradient-0" x1="0" x2="0" y1="1" y2="0"><stop stop-color="rgba(243, 106, 62, 1)" offset="0%"/><stop stop-color="rgba(255, 179, 11, 1)" offset="100%"/></linearGradient></defs><path style="transform:translate(0, 0px); opacity:1" fill="url(#sw-gradient-0)" d="M0,98L1440,0L2880,98L4320,392L5760,441L7200,98L8640,343L10080,0L11520,343L12960,343L14400,0L15840,294L17280,392L18720,343L20160,294L21600,392L23040,147L24480,343L25920,0L27360,0L28800,294L30240,441L31680,196L33120,245L34560,147L34560,490L33120,490L31680,490L30240,490L28800,490L27360,490L25920,490L24480,490L23040,490L21600,490L20160,490L18720,490L17280,490L15840,490L14400,490L12960,490L11520,490L10080,490L8640,490L7200,490L5760,490L4320,490L2880,490L1440,490L0,490Z"/></svg>